<?xml version="1.0" encoding="UTF-8"?>
<svg id="logo" xmlns="http://www.w3.org/2000/svg" viewBox="0 0 700.98 71.76">
    <rect rx="4px" ry="4px" x="-1%" width="45%" height="100%"></rect>
    <path class="caltech-logotype" d="M300.86,82.27h11.58V57.6c0-5.88,2.65-13.28,11.38-13.28,5.88,0,8.54,2.85,8.54,9.49V82.27h11.57V50.49c0-14-9.39-17.36-17.55-17.36-6.54,0-11.19,2.56-13.76,5.88h-.18V12.82H300.86Zm-3.6-35.48c-2.95-7.21-8.64-13.66-20.31-13.66-15.56,0-24.57,10.81-24.57,25.14s9,25.14,23.72,25.14c13,0,18.5-7.68,21.72-14.71L288,63.49c-1.81,4.36-4.75,9.3-11.67,9.3-8.07,0-11.77-7-11.77-14.52S268.7,43.75,277,43.75a10.66,10.66,0,0,1,10.15,7.69ZM213,52.1a12.37,12.37,0,0,1,12.43-9.49c7.78,0,10.91,6.93,10.91,9.49ZM248.52,61c0-17.17-7-27.89-23.06-27.89-15.56,0-24.57,10.81-24.57,25.14s9,25.14,24.57,25.14c13.1,0,20-6.26,23.63-11.76L239.32,66c-1.14,1.62-4.75,6.84-13.86,6.84A12.2,12.2,0,0,1,213,61ZM178.37,23.81V71.27c0,7.3,3.23,11.57,12.72,11.57a42.7,42.7,0,0,0,9.2-1.14V72.22a49.78,49.78,0,0,1-5.12.57c-4.46,0-5.22-2.09-5.22-5.89V42.61h10.34V34.26H190v-22ZM159,82.27h11.57V12.82H159ZM139.12,65.1c0,6.17-6.93,8.82-12.34,8.82-4.17,0-7.49-2.37-7.49-6,0-4.56,3.6-5.79,8-6.64L133.61,60a20.89,20.89,0,0,0,5.51-1.71Zm11.57-16.22c0-13.67-10.34-15.75-20.68-15.75-10.53,0-20.5,4.36-20.5,15.65l11.58.48C121.09,44,123.27,42,130,42c5,0,9.11,1.33,9.11,6.08v1.42c-2.94,1-8.35,2-12.53,2.85l-4.84,1c-7.11,1.42-14.61,5.59-14.61,15s7.21,15.08,16.32,15.08a24.27,24.27,0,0,0,15.66-5.5,9.07,9.07,0,0,0,1.14,4.36h12.23c-.66-1-1.8-3.13-1.8-8.06ZM105.4,34.26C102.17,20.13,91.83,13,78.26,13c-20.21,0-32,16.42-32,35.49S56.63,84,78.26,84c13.48,0,22.49-6.55,27.9-20.11L94.58,58.55c-2.47,7.88-7.49,13.67-16.32,13.67-13.47,0-19.07-12-19.07-23.72s5.6-23.72,19.07-23.72c7.69,0,13.85,5.12,14.9,12.61Z" transform="translate(-46.23 -12.22)"/>
    <!-- The second block -->
    <rect rx="4px" ry="4px" x="46%" width="55%" height="100%"></rect>
    <path d="M458.81,30c-5.26-8.22-15.35-11.61-24.59-11.61C412,18.39,379,43.65,379,67.47c0,7.46,7.8,10.34,14.16,10.34,6.7,0,22-2.88,26.45-8.14.93-5.67,9.58-22.8,16.19-22.8..." transform="translate(-46.23 -12.22)"/>
    <!-- (truncated for brevity — you can paste the rest of your paths here) -->
</svg>
